<?xml version="1.0" encoding="UTF-8"?>
<!DOCTYPE svg PUBLIC "-//W3C//DTD SVG 1.1//EN" "http://www.w3.org/Graphics/SVG/1.1/DTD/svg11.dtd">
<svg xmlns="http://www.w3.org/2000/svg" version="1.1" width="923px" height="574px" style="shape-rendering:geometricPrecision; text-rendering:geometricPrecision; image-rendering:optimizeQuality; fill-rule:evenodd; clip-rule:evenodd" xmlns:xlink="http://www.w3.org/1999/xlink">
<g><path style="opaville:1" fill="#fefefe" d="M -0.5,-0.5 C 307.167,-0.5 614.833,-0.5 922.5,-0.5C 922.5,190.833 922.5,382.167 922.5,573.5C 614.833,573.5 307.167,573.5 -0.5,573.5C -0.5,382.167 -0.5,190.833 -0.5,-0.5 Z"/></g>
<g><path style="opaville:1" fill="#020202" d="M 551.5,10.5 C 552.822,10.33 553.989,10.6634 555,11.5C 562.323,39.687 552.49,59.187 525.5,70C 492.833,70.6667 460.167,70.6667 427.5,70C 468.954,50.44 510.287,30.6067 551.5,10.5 Z"/></g>
<g><path style="opaville:1" fill="#010101" d="M 188.5,63.5 C 219.548,73.5939 236.214,94.9273 238.5,127.5C 238.398,133.534 237.898,139.534 237,145.5C 217.901,198.137 199.234,250.804 181,303.5C 213.01,252.14 238.01,197.473 256,139.5C 283.104,125.243 311.604,114.743 341.5,108C 370.547,101.524 399.88,96.8572 429.5,94C 500.15,92.5436 570.817,92.0436 641.5,92.5C 639.778,126.723 622.111,147.223 588.5,154C 545.833,154.333 503.167,154.667 460.5,155C 439.53,156.159 419.864,161.826 401.5,172C 357.166,198.498 313.166,225.498 269.5,253C 237.421,281.659 219.587,317.492 216,360.5C 218.391,398.699 205.224,430.199 176.5,455C 145.479,477.337 111.813,482.337 75.5,470C 33.9409,451.576 11.9409,419.576 9.5,374C 11.1225,334.736 28.4558,304.736 61.5,284C 89.7485,263.086 113.915,238.252 134,209.5C 140.082,198.667 145.082,187.334 149,175.5C 162.47,138.256 175.637,100.922 188.5,63.5 Z"/></g>
<g><path style="opaville:1" fill="#000000" d="M 364.5,350.5 C 363.957,350.56 363.624,350.893 363.5,351.5C 430.833,352.833 498.167,352.833 565.5,351.5C 565.376,350.893 565.043,350.56 564.5,350.5C 551.258,318.48 560.591,295.646 592.5,282C 619.323,277.16 638.489,286.994 650,311.5C 653.892,324.343 653.058,336.843 647.5,349C 672.749,343.105 690.916,328.272 702,304.5C 712.648,279.827 711.981,255.494 700,231.5C 685.585,207.001 670.918,182.667 656,158.5C 642.67,125.992 648.837,97.8255 674.5,74C 678.248,71.3756 682.081,68.8756 686,66.5C 736.252,150.001 786.252,233.668 836,317.5C 851.942,359.232 846.942,398.232 821,434.5C 800.957,458.442 775.457,472.942 744.5,478C 559.499,478.833 374.499,478.667 189.5,477.5C 189.664,455.308 200.331,441.142 221.5,435C 295.845,434.059 370.179,434.392 444.5,436C 474.838,439.83 503.838,447.83 531.5,460C 520.153,448.651 506.819,440.318 491.5,435C 448.351,420.692 404.017,413.359 358.5,413C 312.835,412.5 267.168,412.333 221.5,412.5C 223.262,384.896 236.929,365.73 262.5,355C 269.165,353.453 275.832,351.953 282.5,350.5C 271.13,327.23 275.13,307.063 294.5,290C 319.008,274.942 341.174,277.775 361,298.5C 372.369,315.064 373.536,332.397 364.5,350.5 Z"/></g>
<g><path style="opaville:1" fill="#818181" d="M 456.5,177.5 C 505.33,176.501 554.33,176.168 603.5,176.5C 603.737,177.791 603.404,178.791 602.5,179.5C 554.178,177.505 505.511,176.838 456.5,177.5 Z"/></g>
<g><path style="opaville:1" fill="#000000" d="M 456.5,177.5 C 505.511,176.838 554.178,177.505 602.5,179.5C 596.94,205.893 580.94,221.727 554.5,227C 488.5,227.667 422.5,227.667 356.5,227C 380.339,211.91 404.673,197.577 429.5,184C 438.248,180.73 447.248,178.563 456.5,177.5 Z"/></g>
<g><path style="opaville:1" fill="#3e3e3e" d="M 364.5,350.5 C 431.167,351.833 497.833,351.833 564.5,350.5C 565.043,350.56 565.376,350.893 565.5,351.5C 498.167,352.833 430.833,352.833 363.5,351.5C 363.624,350.893 363.957,350.56 364.5,350.5 Z"/></g>
<g><path style="opaville:1" fill="#7e7e7e" d="M 328.5,501.5 C 390.999,500.335 453.665,500.168 516.5,501C 514.846,501.608 513.179,502.108 511.5,502.5C 450.669,501.501 389.669,501.168 328.5,501.5 Z"/></g>
<g><path style="opaville:1" fill="#010101" d="M 328.5,501.5 C 389.669,501.168 450.669,501.501 511.5,502.5C 441.158,516.502 370.824,530.502 300.5,544.5C 296.35,524.299 303.683,510.132 322.5,502C 324.473,501.505 326.473,501.338 328.5,501.5 Z"/></g>
</svg>
